<svg xmlns="http://www.w3.org/2000/svg" width="100" height="80" fill="none" viewBox="0 0 100 80"><g clip-path="url(#clip0_94_143)"><path fill="#e9e9e9" d="M52.781.844a5.01 5.01 0 0 0-5.562 0L25.984 15H7.5C3.36 15 0 18.36 0 22.5v50C0 76.64 3.36 80 7.5 80H50 40V65c0-5.516 4.484-10 10-10h.125a27.3 27.3 0 0 1 6.594-15.484A13.8 13.8 0 0 1 50 41.25c-7.594 0-13.75-6.156-13.75-13.75S42.406 13.75 50 13.75s13.75 6.156 13.75 13.75c0 2.86-.875 5.516-2.36 7.719A27.37 27.37 0 0 1 77.5 30c9.297 0 17.516 4.625 22.5 11.688V22.5c0-4.14-3.36-7.5-7.5-7.5H74.016zM15 30h5c1.375 0 2.5 1.125 2.5 2.5v10c0 1.375-1.125 2.5-2.5 2.5h-5a2.507 2.507 0 0 1-2.5-2.5v-10c0-1.375 1.125-2.5 2.5-2.5m0 20h5c1.375 0 2.5 1.125 2.5 2.5v10c0 1.375-1.125 2.5-2.5 2.5h-5a2.507 2.507 0 0 1-2.5-2.5v-10c0-1.375 1.125-2.5 2.5-2.5m35-30a2.507 2.507 0 0 0-2.5 2.5v5c0 1.375 1.125 2.5 2.5 2.5h5c1.375 0 2.5-1.125 2.5-2.5S56.375 25 55 25h-2.5v-2.5c0-1.375-1.125-2.5-2.5-2.5m50 37.5a22.5 22.5 0 1 0-45 0 22.5 22.5 0 0 0 45 0m-15.516-6.766a2.51 2.51 0 0 1 3.532 0 2.51 2.51 0 0 1 0 3.532l-11.25 11.25a2.51 2.51 0 0 1-3.532 0l-6.25-6.25a2.51 2.51 0 0 1 0-3.532 2.51 2.51 0 0 1 3.532 0L75 60.22z"/></g><defs><clipPath id="clip0_94_143"><path fill="#e9e9e9" d="M0 0h100v80H0z"/></clipPath></defs></svg>