<svg xmlns="http://www.w3.org/2000/svg" width="100" height="80" fill="none" viewBox="0 0 100 80"><g clip-path="url(#clip0_94_141)"><path fill="#e9e9e9" d="M52.781.844a5.01 5.01 0 0 0-5.562 0L25.984 15H7.5C3.36 15 0 18.36 0 22.5v50C0 76.64 3.36 80 7.5 80H40V65c0-5.516 4.484-10 10-10s10 4.484 10 10v15h32.5c4.14 0 7.5-3.36 7.5-7.5v-50c0-4.14-3.36-7.5-7.5-7.5H74.015zM15 30h5c1.375 0 2.5 1.125 2.5 2.5v10c0 1.375-1.125 2.5-2.5 2.5h-5a2.507 2.507 0 0 1-2.5-2.5v-10c0-1.375 1.125-2.5 2.5-2.5m62.5 2.5c0-1.375 1.125-2.5 2.5-2.5h5c1.375 0 2.5 1.125 2.5 2.5v10c0 1.375-1.125 2.5-2.5 2.5h-5a2.507 2.507 0 0 1-2.5-2.5zM15 50h5c1.375 0 2.5 1.125 2.5 2.5v10c0 1.375-1.125 2.5-2.5 2.5h-5a2.507 2.507 0 0 1-2.5-2.5v-10c0-1.375 1.125-2.5 2.5-2.5m62.5 2.5c0-1.375 1.125-2.5 2.5-2.5h5c1.375 0 2.5 1.125 2.5 2.5v10c0 1.375-1.125 2.5-2.5 2.5h-5a2.507 2.507 0 0 1-2.5-2.5zm-41.25-25a13.75 13.75 0 1 1 27.5 0 13.75 13.75 0 0 1-27.5 0M50 20a2.507 2.507 0 0 0-2.5 2.5v5c0 1.375 1.125 2.5 2.5 2.5h5c1.375 0 2.5-1.125 2.5-2.5S56.375 25 55 25h-2.5v-2.5c0-1.375-1.125-2.5-2.5-2.5"/></g><defs><clipPath id="clip0_94_141"><path fill="#e9e9e9" d="M0 0h100v80H0z"/></clipPath></defs></svg>